<svg width="1080" height="1080" viewBox="0 0 1080 1080" fill="none" xmlns="http://www.w3.org/2000/svg">
<rect width="1080" height="1080" fill="#202020"/>
<g clip-path="url(#clip0_3_5)">
<path d="M835.214 694.025V512.285V452.473C835.274 428.764 830.63 405.278 821.551 383.374C812.472 361.469 799.138 341.58 782.32 324.855L691.077 233.719H765.365C772.208 233.719 778.771 231.003 783.61 226.168C788.448 221.333 791.167 214.775 791.167 207.938C791.167 201.1 788.448 194.542 783.61 189.707C778.771 184.872 772.208 182.156 765.365 182.156H628.797C621.954 182.156 615.391 184.872 610.552 189.707C605.713 194.542 602.995 201.1 602.995 207.938V343.106C602.995 349.943 605.713 356.501 610.552 361.336C615.391 366.171 621.954 368.887 628.797 368.887C635.64 368.887 642.203 366.171 647.042 361.336C651.881 356.501 654.599 349.943 654.599 343.106V270.167L745.809 361.336C757.832 373.272 767.363 387.474 773.852 403.118C780.341 418.763 783.657 435.538 783.61 452.473V512.285V694.025C759.287 700.3 738.09 715.223 723.991 735.997C709.893 756.771 703.861 781.969 707.026 806.869C710.191 831.769 722.336 854.661 741.185 871.253C760.034 887.846 784.291 897 809.412 897C834.532 897 858.79 887.846 877.639 871.253C896.487 854.661 908.632 831.769 911.798 806.869C914.963 781.969 908.931 756.771 894.832 735.997C880.734 715.223 859.536 700.3 835.214 694.025ZM809.412 845.489C799.205 845.489 789.228 842.465 780.742 836.8C772.256 831.134 765.641 823.081 761.736 813.659C757.83 804.237 756.808 793.87 758.799 783.868C760.79 773.865 765.705 764.678 772.922 757.467C780.139 750.256 789.334 745.345 799.344 743.355C809.354 741.366 819.73 742.387 829.16 746.289C838.589 750.192 846.649 756.801 852.319 765.28C857.989 773.76 861.016 783.729 861.016 793.927C861.016 807.602 855.579 820.717 845.901 830.387C836.224 840.057 823.098 845.489 809.412 845.489Z" fill="#FFD100"/>
</g>
<path d="M645.881 460.938C644.276 457.493 641.844 454.498 638.802 452.219C635.76 449.94 632.202 448.447 628.444 447.872L453.02 420.497L451.579 204.808C451.521 199.801 449.836 194.95 446.778 190.985C443.719 187.02 439.453 184.157 434.624 182.828C429.795 181.499 424.664 181.776 420.007 183.617C415.349 185.458 411.416 188.764 408.803 193.035L162.468 597.423C160.458 600.662 159.282 604.348 159.045 608.152C158.808 611.956 159.517 615.759 161.109 619.223C162.701 622.686 165.127 625.701 168.17 627.998C171.212 630.296 174.777 631.804 178.545 632.389L354.025 659.753L355.532 875.192C355.59 880.199 357.275 885.05 360.334 889.015C363.392 892.98 367.658 895.843 372.487 897.172C377.316 898.501 382.447 898.224 387.105 896.383C391.763 894.542 395.695 891.236 398.308 886.965L644.643 482.577C646.607 479.348 647.746 475.685 647.962 471.912C648.178 468.139 647.464 464.37 645.881 460.938ZM401.185 793.796L400.151 639.729C400.124 634.263 398.156 628.984 394.599 624.832C391.041 620.681 386.125 617.927 380.726 617.06L219.81 591.869L405.927 286.352L406.99 440.412C407.017 445.879 408.984 451.157 412.542 455.309C416.099 459.46 421.015 462.215 426.415 463.081L587.188 488.155L401.185 793.796Z" fill="#FFD100"/>
<defs>
<clipPath id="clip0_3_5">
<rect width="309" height="715" fill="white" transform="translate(603 182)"/>
</clipPath>
</defs>
</svg>
